<?xml version="1.0" encoding="UTF-8"?>
<svg xmlns="http://www.w3.org/2000/svg" xmlns:xlink="http://www.w3.org/1999/xlink" width="60pt" height="59pt" viewBox="0 0 60 59" version="1.1">
<g id="surface1">
<path style=" stroke:none;fill-rule:nonzero;fill:rgb(100%,32.941176%,24.313725%);fill-opacity:1;" d="M 46.679688 36.15625 C 45.492188 34.941406 44.058594 34.285156 42.535156 34.285156 C 41.023438 34.285156 39.585938 34.929688 38.34375 36.140625 L 34.476562 39.933594 C 34.160156 39.757812 33.835938 39.609375 33.53125 39.449219 C 33.09375 39.226562 32.675781 39.027344 32.324219 38.804688 C 28.699219 36.539062 25.398438 33.589844 22.234375 29.765625 C 20.699219 27.859375 19.683594 26.261719 18.925781 24.640625 C 19.933594 23.734375 20.863281 22.792969 21.769531 21.890625 C 22.113281 21.558594 22.453125 21.210938 22.804688 20.863281 C 25.371094 18.335938 25.371094 15.054688 22.804688 12.53125 L 19.453125 9.238281 C 19.078125 8.863281 18.6875 8.480469 18.320312 8.097656 C 17.589844 7.355469 16.808594 6.574219 16.015625 5.855469 C 14.832031 4.703125 13.410156 4.085938 11.910156 4.085938 C 10.414062 4.085938 8.964844 4.703125 7.742188 5.855469 C 7.730469 5.871094 7.730469 5.871094 7.71875 5.882812 L 3.5625 10.015625 C 1.992188 11.566406 1.09375 13.445312 0.894531 15.625 C 0.605469 19.140625 1.648438 22.425781 2.46875 24.566406 C 4.457031 29.828125 7.417969 34.703125 11.835938 39.941406 C 17.199219 46.246094 23.660156 51.222656 31.039062 54.726562 C 33.859375 56.039062 37.609375 57.601562 41.816406 57.859375 C 42.066406 57.871094 42.34375 57.886719 42.582031 57.886719 C 45.417969 57.886719 47.796875 56.878906 49.648438 54.898438 C 49.660156 54.878906 49.6875 54.863281 49.699219 54.835938 C 50.339844 54.085938 51.074219 53.390625 51.839844 52.660156 C 52.367188 52.164062 52.910156 51.644531 53.425781 51.097656 C 54.636719 49.863281 55.277344 48.410156 55.277344 46.925781 C 55.277344 45.429688 54.621094 44.003906 53.386719 42.789062 Z M 51.074219 48.832031 C 51.058594 48.832031 51.058594 48.847656 51.074219 48.832031 C 50.59375 49.339844 50.101562 49.800781 49.570312 50.308594 C 48.78125 51.050781 47.972656 51.84375 47.203125 52.722656 C 45.972656 54.023438 44.511719 54.640625 42.597656 54.640625 C 42.40625 54.640625 42.222656 54.640625 42.03125 54.628906 C 38.390625 54.40625 35.003906 53.007812 32.472656 51.804688 C 25.535156 48.5 19.453125 43.820312 14.390625 37.875 C 10.210938 32.921875 7.417969 28.339844 5.566406 23.425781 C 4.429688 20.429688 4.003906 18.089844 4.191406 15.886719 C 4.316406 14.472656 4.875 13.3125 5.878906 12.304688 L 10.074219 8.199219 C 10.675781 7.640625 11.304688 7.34375 11.9375 7.34375 C 12.703125 7.34375 13.332031 7.800781 13.726562 8.183594 C 13.734375 8.199219 13.75 8.210938 13.761719 8.21875 C 14.503906 8.902344 15.222656 9.621094 15.96875 10.375 C 16.34375 10.761719 16.734375 11.144531 17.125 11.539062 L 20.472656 14.832031 C 21.769531 16.109375 21.769531 17.285156 20.472656 18.570312 C 20.121094 18.917969 19.78125 19.265625 19.414062 19.613281 C 18.382812 20.652344 17.402344 21.621094 16.34375 22.546875 C 16.320312 22.570312 16.292969 22.585938 16.28125 22.609375 C 15.222656 23.648438 15.425781 24.652344 15.636719 25.34375 C 15.652344 25.382812 15.664062 25.421875 15.675781 25.457031 C 16.546875 27.523438 17.769531 29.480469 19.628906 31.808594 L 19.640625 31.820312 C 23.03125 35.917969 26.59375 39.113281 30.523438 41.554688 C 31.023438 41.863281 31.539062 42.121094 32.035156 42.359375 C 32.472656 42.582031 32.890625 42.777344 33.242188 43.003906 C 33.292969 43.027344 33.34375 43.0625 33.390625 43.089844 C 33.808594 43.296875 34.199219 43.386719 34.601562 43.386719 C 35.621094 43.386719 36.25 42.753906 36.464844 42.554688 L 40.660156 38.433594 C 41.070312 38.023438 41.742188 37.53125 42.511719 37.53125 C 43.265625 37.53125 43.894531 38 44.273438 38.40625 C 44.285156 38.421875 44.285156 38.421875 44.296875 38.433594 L 51.046875 45.070312 C 52.316406 46.296875 52.316406 47.558594 51.074219 48.832031 Z M 51.074219 48.832031 "/>
<path style=" stroke:none;fill-rule:nonzero;fill:rgb(100%,32.941176%,24.313725%);fill-opacity:1;" d="M 32.171875 14.375 C 35.382812 14.910156 38.292969 16.394531 40.621094 18.683594 C 42.949219 20.976562 44.460938 23.835938 45.003906 26.992188 C 45.140625 27.785156 45.832031 28.339844 46.625 28.339844 C 46.726562 28.339844 46.816406 28.332031 46.90625 28.316406 C 47.808594 28.167969 48.417969 27.324219 48.261719 26.433594 C 47.597656 22.621094 45.769531 19.128906 42.964844 16.382812 C 40.179688 13.617188 36.640625 11.8125 32.75 11.167969 C 31.84375 11.019531 31 11.613281 30.839844 12.492188 C 30.671875 13.375 31.265625 14.226562 32.171875 14.375 Z M 32.171875 14.375 "/>
<path style=" stroke:none;fill-rule:nonzero;fill:rgb(100%,32.941176%,24.313725%);fill-opacity:1;" d="M 58.789062 25.976562 C 57.695312 19.6875 54.683594 13.964844 50.050781 9.410156 C 45.417969 4.855469 39.601562 1.894531 33.207031 0.820312 C 32.308594 0.65625 31.46875 1.261719 31.304688 2.140625 C 31.152344 3.035156 31.757812 3.863281 32.664062 4.023438 C 38.367188 4.976562 43.578125 7.640625 47.71875 11.699219 C 51.867188 15.777344 54.558594 20.890625 55.527344 26.511719 C 55.667969 27.300781 56.359375 27.859375 57.152344 27.859375 C 57.253906 27.859375 57.34375 27.847656 57.433594 27.832031 C 58.335938 27.699219 58.941406 26.859375 58.789062 25.976562 Z M 58.789062 25.976562 "/>
</g>
</svg>
