<?xml version="1.0" encoding="UTF-8"?>
<svg xmlns="http://www.w3.org/2000/svg" xmlns:xlink="http://www.w3.org/1999/xlink" width="70pt" height="70pt" viewBox="0 0 70 70" version="1.1">
<g id="surface1">
<path style=" stroke:none;fill-rule:nonzero;fill:rgb(100%,32.941176%,24.313725%);fill-opacity:1;" d="M 58.5 13.101562 L 42.800781 13.101562 L 42.800781 12 C 42.800781 6.398438 38.300781 1.898438 32.800781 1.898438 L 11.601562 1.898438 C 5.898438 1.898438 1.5 6.398438 1.5 12.101562 L 1.5 25.5 C 1.5 31 6 35.5 11.601562 35.601562 L 12.699219 35.601562 L 12.699219 44.5 C 12.699219 45 13 45.398438 13.398438 45.601562 C 13.800781 45.800781 14.300781 45.699219 14.699219 45.398438 L 24.398438 35.699219 L 27.300781 35.699219 L 27.300781 36.898438 C 27.300781 42.199219 31.800781 46.699219 37.300781 46.699219 L 43.5 46.699219 L 55.5 58.699219 C 55.800781 59 56.300781 59.101562 56.800781 58.898438 C 57.199219 58.699219 57.5 58.300781 57.5 57.800781 L 57.5 46.699219 L 58.699219 46.699219 C 64.199219 46.699219 68.699219 42.199219 68.699219 36.699219 L 68.699219 23.199219 C 68.5 17.601562 64.101562 13.101562 58.5 13.101562 Z M 23.800781 33.199219 C 23.5 33.199219 23.199219 33.300781 23 33.5 L 14.800781 41.699219 L 14.800781 34.300781 C 14.800781 33.699219 14.300781 33.199219 13.601562 33.199219 L 11.398438 33.199219 C 7.101562 33.199219 3.601562 29.699219 3.5 25.300781 L 3.5 12.101562 C 3.5 7.800781 7 4.300781 11.398438 4.199219 L 32.699219 4.199219 C 37 4.199219 40.5 7.699219 40.5 12.101562 L 40.5 13.199219 L 37.101562 13.199219 C 31.601562 13.199219 27.101562 17.699219 27.101562 23.300781 L 27.101562 33.398438 Z M 66.300781 36.699219 C 66.300781 41 62.800781 44.5 58.5 44.5 L 56.300781 44.5 C 55.699219 44.5 55.199219 45 55.199219 45.601562 L 55.199219 55.199219 L 44.699219 44.699219 C 44.5 44.5 44.199219 44.398438 43.898438 44.398438 L 37.199219 44.398438 C 32.898438 44.398438 29.398438 40.898438 29.398438 36.601562 L 29.398438 23.199219 C 29.398438 18.898438 32.898438 15.398438 37.199219 15.300781 L 58.5 15.300781 C 62.800781 15.300781 66.300781 18.800781 66.300781 23.199219 Z M 66.300781 36.699219 "/>
<path style=" stroke:none;fill-rule:nonzero;fill:rgb(100%,32.941176%,24.313725%);fill-opacity:1;" d="M 60.800781 22.101562 L 35 22.101562 C 34.398438 22.101562 33.800781 22.601562 33.800781 23.199219 C 33.800781 23.800781 34.300781 24.300781 35 24.300781 L 60.800781 24.300781 C 61.398438 24.300781 61.898438 23.800781 61.898438 23.199219 C 61.800781 22.601562 61.300781 22.101562 60.800781 22.101562 Z M 60.800781 22.101562 "/>
<path style=" stroke:none;fill-rule:nonzero;fill:rgb(100%,32.941176%,24.313725%);fill-opacity:1;" d="M 60.800781 28.800781 L 35 28.800781 C 34.398438 28.800781 33.800781 29.300781 33.800781 29.898438 C 33.800781 30.5 34.300781 31 35 31 L 60.800781 31 C 61.398438 31 61.898438 30.5 61.898438 29.898438 C 61.800781 29.300781 61.300781 28.800781 60.800781 28.800781 Z M 60.800781 28.800781 "/>
<path style=" stroke:none;fill-rule:nonzero;fill:rgb(100%,32.941176%,24.313725%);fill-opacity:1;" d="M 60.800781 35.5 L 35 35.5 C 34.398438 35.5 33.800781 36 33.800781 36.699219 C 33.800781 37.300781 34.300781 37.800781 35 37.800781 L 60.800781 37.800781 C 61.398438 37.800781 61.898438 37.300781 61.898438 36.699219 C 61.800781 36 61.300781 35.5 60.800781 35.5 Z M 60.800781 35.5 "/>
<path style=" stroke:none;fill-rule:nonzero;fill:rgb(100%,32.941176%,24.313725%);fill-opacity:1;" d="M 8.199219 13.101562 L 31.601562 13.101562 C 32.199219 13.101562 32.800781 12.601562 32.800781 12 C 32.800781 11.398438 32.300781 10.800781 31.601562 10.800781 L 8.199219 10.800781 C 7.601562 10.800781 7.101562 11.300781 7.101562 12 C 7.101562 12.601562 7.601562 13.101562 8.199219 13.101562 Z M 8.199219 13.101562 "/>
<path style=" stroke:none;fill-rule:nonzero;fill:rgb(100%,32.941176%,24.313725%);fill-opacity:1;" d="M 24.898438 17.601562 L 8.199219 17.601562 C 7.601562 17.601562 7.101562 18.101562 7.101562 18.699219 C 7.101562 19.300781 7.601562 19.800781 8.199219 19.800781 L 25 19.800781 C 25.601562 19.800781 26.101562 19.300781 26.101562 18.699219 C 26.101562 18.101562 25.601562 17.601562 24.898438 17.601562 Z M 24.898438 17.601562 "/>
<path style=" stroke:none;fill-rule:nonzero;fill:rgb(100%,32.941176%,24.313725%);fill-opacity:1;" d="M 23.800781 24.300781 L 8.199219 24.300781 C 7.601562 24.300781 7.101562 24.800781 7.101562 25.398438 C 7.101562 26 7.601562 26.5 8.199219 26.5 L 23.898438 26.5 C 24.5 26.5 25 26 25 25.398438 C 24.898438 24.800781 24.398438 24.300781 23.800781 24.300781 Z M 23.800781 24.300781 "/>
</g>
</svg>
