<?xml version="1.0" encoding="UTF-8"?>
<svg xmlns="http://www.w3.org/2000/svg" xmlns:xlink="http://www.w3.org/1999/xlink" width="70pt" height="70pt" viewBox="0 0 70 70" version="1.1">
<g id="surface1">
<path style=" stroke:none;fill-rule:nonzero;fill:rgb(100%,32.941176%,24.313725%);fill-opacity:1;" d="M 21.5 29.699219 C 21.300781 32.601562 23 35.300781 25.601562 36.601562 C 26.601562 37.101562 27.300781 37.800781 27.699219 38.699219 C 29.101562 41.199219 31.800781 42.800781 34.699219 42.601562 C 35.800781 42.5 36.800781 42.800781 37.699219 43.398438 C 40.199219 45 43.300781 45 45.898438 43.398438 C 46.800781 42.800781 47.800781 42.5 48.898438 42.601562 C 51.800781 42.800781 54.601562 41.199219 55.898438 38.699219 C 56.398438 37.800781 57.199219 37 58.101562 36.601562 C 60.699219 35.300781 62.398438 32.601562 62.199219 29.800781 C 62.101562 28.800781 62.398438 27.800781 63 27 C 64.699219 24.601562 64.699219 21.5 63 19 C 62.398438 18.101562 62.101562 17.199219 62.199219 16.199219 C 62.398438 13.398438 60.699219 10.699219 58.101562 9.398438 C 57.101562 8.898438 56.398438 8.199219 56 7.300781 C 54.601562 4.800781 51.898438 3.199219 49 3.398438 C 47.898438 3.5 46.898438 3.199219 46 2.601562 C 43.5 1 40.398438 1 37.800781 2.601562 C 36.898438 3.199219 35.898438 3.5 34.800781 3.398438 C 31.898438 3.199219 29.101562 4.800781 27.800781 7.300781 C 27.300781 8.199219 26.5 9 25.699219 9.398438 C 23.101562 10.699219 21.398438 13.398438 21.601562 16.199219 C 21.699219 17.199219 21.398438 18.199219 20.800781 19 C 19.101562 21.398438 19.101562 24.5 20.800781 27 C 21.300781 27.699219 21.601562 28.699219 21.5 29.699219 Z M 22.699219 20.300781 C 23.601562 19 24.101562 17.5 24 15.898438 C 23.898438 14 25 12.199219 26.699219 11.398438 C 28.199219 10.699219 29.199219 9.699219 30 8.199219 C 30.898438 6.5 32.699219 5.5 34.800781 5.601562 C 36.398438 5.699219 37.898438 5.300781 39.300781 4.398438 C 41 3.300781 43.101562 3.300781 44.800781 4.398438 C 46.199219 5.300781 47.699219 5.699219 49.300781 5.601562 C 51.199219 5.5 53.101562 6.5 54 8.199219 C 54.699219 9.601562 55.800781 10.699219 57.300781 11.398438 C 59.101562 12.300781 60.101562 14 60 15.898438 C 59.898438 17.5 60.398438 19 61.300781 20.300781 C 62.398438 21.898438 62.398438 23.898438 61.300781 25.5 C 60.398438 26.800781 59.898438 28.300781 60 29.898438 C 60.101562 31.699219 59 33.5 57.300781 34.398438 C 55.800781 35.101562 54.800781 36.199219 54 37.601562 C 53.101562 39.300781 51.300781 40.300781 49.199219 40.199219 C 47.601562 40.101562 46.101562 40.5 44.699219 41.398438 C 43 42.5 40.898438 42.5 39.199219 41.398438 C 38 40.601562 36.601562 40.199219 35.101562 40.199219 C 35 40.199219 34.800781 40.199219 34.699219 40.199219 C 32.800781 40.300781 30.898438 39.300781 29.898438 37.601562 C 29.199219 36.199219 28.101562 35.101562 26.601562 34.398438 C 24.800781 33.5 23.800781 31.800781 23.898438 29.898438 C 24 28.300781 23.5 26.800781 22.601562 25.5 C 21.699219 23.898438 21.699219 21.898438 22.699219 20.300781 Z M 22.699219 20.300781 "/>
<path style=" stroke:none;fill-rule:nonzero;fill:rgb(100%,32.941176%,24.313725%);fill-opacity:1;" d="M 34 35.699219 C 34.601562 36.101562 35.398438 35.898438 35.699219 35.300781 L 50.398438 11.898438 C 50.601562 11.5 50.699219 11 50.5 10.601562 C 50.300781 10.199219 49.898438 9.898438 49.398438 9.898438 C 48.898438 9.898438 48.5 10.101562 48.300781 10.5 L 33.601562 33.898438 C 33.199219 34.5 33.398438 35.300781 34 35.699219 Z M 34 35.699219 "/>
<path style=" stroke:none;fill-rule:nonzero;fill:rgb(100%,32.941176%,24.313725%);fill-opacity:1;" d="M 35.300781 22.898438 C 38.300781 22.898438 40.699219 20.101562 40.699219 16.699219 C 40.699219 13.300781 38.300781 10.5 35.300781 10.5 C 32.300781 10.5 29.898438 13.300781 29.898438 16.699219 C 29.800781 20.101562 32.300781 22.898438 35.300781 22.898438 Z M 35.300781 13 C 37 13 38.300781 14.699219 38.300781 16.800781 C 38.300781 18.898438 36.898438 20.601562 35.300781 20.601562 C 33.601562 20.601562 32.300781 18.898438 32.300781 16.800781 C 32.300781 14.699219 33.601562 13 35.300781 13 Z M 35.300781 13 "/>
<path style=" stroke:none;fill-rule:nonzero;fill:rgb(100%,32.941176%,24.313725%);fill-opacity:1;" d="M 43.199219 29.101562 C 43.199219 32.5 45.601562 35.300781 48.601562 35.300781 C 51.601562 35.300781 54 32.5 54 29.101562 C 54 25.699219 51.601562 22.898438 48.601562 22.898438 C 45.601562 22.800781 43.199219 25.699219 43.199219 29.101562 Z M 51.601562 29.101562 C 51.601562 31.101562 50.199219 32.898438 48.601562 32.898438 C 46.898438 32.898438 45.601562 31.199219 45.601562 29.101562 C 45.601562 27 47 25.300781 48.601562 25.300781 C 50.300781 25.300781 51.601562 27 51.601562 29.101562 Z M 51.601562 29.101562 "/>
<path style=" stroke:none;fill-rule:nonzero;fill:rgb(100%,32.941176%,24.313725%);fill-opacity:1;" d="M 68.101562 49.601562 C 66.398438 46.699219 62.800781 45.601562 59.800781 47.101562 L 50.101562 51.699219 C 48.699219 49.199219 46.199219 47.601562 43.398438 47.5 L 34.5 47.199219 C 33 47.199219 31.699219 46.800781 30.398438 46.101562 L 29.5 45.699219 C 24.800781 43.300781 19.300781 43.300781 14.601562 45.699219 L 14.699219 43.699219 C 14.699219 43 14.199219 42.398438 13.5 42.398438 L 3.699219 42.199219 C 3 42.199219 2.398438 42.699219 2.398438 43.398438 L 1.800781 64.800781 C 1.800781 65.5 2.300781 66.101562 3 66.101562 L 12.800781 66.398438 C 13.5 66.398438 14.101562 65.898438 14.101562 65.199219 L 14.101562 64.101562 L 16.601562 62.699219 C 17.601562 62.101562 18.699219 62 19.898438 62.300781 L 35.101562 66.601562 L 35.199219 66.601562 C 36.300781 66.800781 37.398438 67 38.5 67 C 40.800781 67 43.300781 66.5 45.398438 65.5 C 45.5 65.5 45.5 65.398438 45.601562 65.398438 L 67.699219 51.101562 C 68.199219 50.800781 68.300781 50.199219 68.101562 49.601562 Z M 4.398438 63.699219 L 4.898438 44.601562 L 12.199219 44.800781 L 11.699219 63.898438 Z M 44.300781 63.398438 C 41.601562 64.601562 38.699219 65 35.699219 64.398438 L 20.5 60.101562 C 18.699219 59.601562 17 59.800781 15.398438 60.699219 L 14.101562 61.398438 L 14.5 48.800781 C 18.601562 46.101562 23.898438 45.800781 28.300781 48 L 29.199219 48.5 C 30.800781 49.300781 32.5 49.800781 34.398438 49.898438 L 43.300781 50.199219 C 45.800781 50.300781 48 52 48.5 54.5 L 35.300781 54 C 34.601562 54 34 54.5 34 55.199219 C 34 55.898438 34.5 56.5 35.199219 56.5 L 49.898438 56.898438 C 50.601562 56.898438 51.199219 56.398438 51.199219 55.699219 C 51.199219 55.101562 51.199219 54.601562 51.101562 54.101562 L 61 49.398438 C 62.398438 48.699219 64.101562 48.898438 65.300781 50 Z M 44.300781 63.398438 "/>
</g>
</svg>
