<?xml version="1.0" encoding="UTF-8"?>
<svg xmlns="http://www.w3.org/2000/svg" xmlns:xlink="http://www.w3.org/1999/xlink" width="75pt" height="75pt" viewBox="0 0 75 75" version="1.1">
<g id="surface1">
<path style=" stroke:none;fill-rule:nonzero;fill:rgb(100%,32.941176%,24.313725%);fill-opacity:1;" d="M 67.328125 21.878906 L 69.210938 19.992188 C 69.378906 19.832031 69.507812 19.636719 69.597656 19.421875 C 69.6875 19.207031 69.734375 18.980469 69.738281 18.746094 C 69.738281 18.515625 69.691406 18.285156 69.605469 18.070312 C 69.515625 17.855469 69.386719 17.660156 69.222656 17.496094 C 69.058594 17.332031 68.863281 17.203125 68.648438 17.113281 C 68.433594 17.027344 68.203125 16.980469 67.972656 16.980469 C 67.738281 16.984375 67.511719 17.03125 67.296875 17.121094 C 67.082031 17.210938 66.886719 17.339844 66.726562 17.507812 L 64.765625 19.46875 C 61.453125 16.742188 57.523438 14.867188 53.320312 14.007812 L 53.320312 9.960938 L 55.078125 9.960938 C 55.542969 9.960938 55.992188 9.777344 56.320312 9.445312 C 56.652344 9.117188 56.835938 8.667969 56.835938 8.203125 L 56.835938 2.34375 C 56.835938 1.878906 56.652344 1.429688 56.320312 1.101562 C 55.992188 0.769531 55.542969 0.585938 55.078125 0.585938 L 41.015625 0.585938 C 40.550781 0.585938 40.101562 0.769531 39.773438 1.101562 C 39.441406 1.429688 39.257812 1.878906 39.257812 2.34375 L 39.257812 8.203125 C 39.257812 8.667969 39.441406 9.117188 39.773438 9.445312 C 40.101562 9.777344 40.550781 9.960938 41.015625 9.960938 L 42.773438 9.960938 L 42.773438 14.007812 C 38.570312 14.867188 34.640625 16.742188 31.328125 19.46875 L 29.367188 17.507812 C 29.207031 17.339844 29.011719 17.210938 28.796875 17.121094 C 28.582031 17.03125 28.355469 16.984375 28.121094 16.980469 C 27.890625 16.980469 27.660156 17.027344 27.445312 17.113281 C 27.230469 17.203125 27.035156 17.332031 26.871094 17.496094 C 26.707031 17.660156 26.578125 17.855469 26.488281 18.070312 C 26.402344 18.285156 26.355469 18.515625 26.355469 18.746094 C 26.359375 18.980469 26.40625 19.207031 26.496094 19.421875 C 26.585938 19.636719 26.714844 19.832031 26.882812 19.992188 L 28.765625 21.878906 C 24.207031 26.75 21.675781 33.171875 21.679688 39.84375 C 21.679688 54.382812 33.507812 66.210938 48.046875 66.210938 C 62.585938 66.210938 74.414062 54.382812 74.414062 39.84375 C 74.417969 33.171875 71.886719 26.75 67.328125 21.878906 Z M 42.773438 4.101562 L 53.320312 4.101562 L 53.320312 6.445312 L 42.773438 6.445312 Z M 46.289062 9.960938 L 49.804688 9.960938 L 49.804688 13.535156 C 49.222656 13.5 48.636719 13.476562 48.046875 13.476562 C 47.457031 13.476562 46.871094 13.5 46.289062 13.535156 Z M 48.046875 62.695312 C 35.445312 62.695312 25.195312 52.445312 25.195312 39.84375 C 25.195312 27.242188 35.445312 16.992188 48.046875 16.992188 C 60.648438 16.992188 70.898438 27.242188 70.898438 39.84375 C 70.898438 52.445312 60.648438 62.695312 48.046875 62.695312 Z M 48.046875 62.695312 "/>
<path style=" stroke:none;fill-rule:nonzero;fill:rgb(100%,32.941176%,24.313725%);fill-opacity:1;" d="M 48.046875 20.507812 C 37.386719 20.507812 28.710938 29.183594 28.710938 39.84375 C 28.710938 50.503906 37.386719 59.179688 48.046875 59.179688 C 58.707031 59.179688 67.382812 50.503906 67.382812 39.84375 C 67.382812 29.183594 58.707031 20.507812 48.046875 20.507812 Z M 63.769531 38.085938 L 49.804688 38.085938 L 49.804688 24.121094 C 53.367188 24.527344 56.691406 26.125 59.226562 28.664062 C 61.765625 31.199219 63.363281 34.523438 63.769531 38.085938 Z M 48.046875 55.664062 C 44.003906 55.664062 40.113281 54.113281 37.175781 51.335938 C 34.238281 48.558594 32.476562 44.761719 32.253906 40.722656 C 32.027344 36.6875 33.355469 32.71875 35.96875 29.628906 C 38.578125 26.542969 42.269531 24.570312 46.289062 24.121094 L 46.289062 39.84375 C 46.289062 40.308594 46.472656 40.757812 46.804688 41.085938 C 47.132812 41.417969 47.582031 41.601562 48.046875 41.601562 L 63.769531 41.601562 C 63.332031 45.46875 61.488281 49.035156 58.589844 51.628906 C 55.6875 54.222656 51.9375 55.660156 48.046875 55.664062 Z M 48.046875 55.664062 "/>
<path style=" stroke:none;fill-rule:nonzero;fill:rgb(100%,32.941176%,24.313725%);fill-opacity:1;" d="M 19.921875 27.539062 L 8.203125 27.539062 C 7.738281 27.539062 7.289062 27.722656 6.960938 28.054688 C 6.628906 28.382812 6.445312 28.832031 6.445312 29.296875 C 6.445312 29.761719 6.628906 30.210938 6.960938 30.539062 C 7.289062 30.871094 7.738281 31.054688 8.203125 31.054688 L 19.921875 31.054688 C 20.386719 31.054688 20.835938 30.871094 21.164062 30.539062 C 21.496094 30.210938 21.679688 29.761719 21.679688 29.296875 C 21.679688 28.832031 21.496094 28.382812 21.164062 28.054688 C 20.835938 27.722656 20.386719 27.539062 19.921875 27.539062 Z M 19.921875 27.539062 "/>
<path style=" stroke:none;fill-rule:nonzero;fill:rgb(100%,32.941176%,24.313725%);fill-opacity:1;" d="M 19.335938 43.359375 C 19.335938 42.894531 19.152344 42.445312 18.820312 42.117188 C 18.492188 41.785156 18.042969 41.601562 17.578125 41.601562 L 5.859375 41.601562 C 5.394531 41.601562 4.945312 41.785156 4.617188 42.117188 C 4.285156 42.445312 4.101562 42.894531 4.101562 43.359375 C 4.101562 43.824219 4.285156 44.273438 4.617188 44.601562 C 4.945312 44.933594 5.394531 45.117188 5.859375 45.117188 L 17.578125 45.117188 C 18.042969 45.117188 18.492188 44.933594 18.820312 44.601562 C 19.152344 44.273438 19.335938 43.824219 19.335938 43.359375 Z M 19.335938 43.359375 "/>
<path style=" stroke:none;fill-rule:nonzero;fill:rgb(100%,32.941176%,24.313725%);fill-opacity:1;" d="M 18.75 48.632812 L 10.546875 48.632812 C 10.082031 48.632812 9.632812 48.816406 9.304688 49.148438 C 8.972656 49.476562 8.789062 49.925781 8.789062 50.390625 C 8.789062 50.855469 8.972656 51.304688 9.304688 51.632812 C 9.632812 51.964844 10.082031 52.148438 10.546875 52.148438 L 18.75 52.148438 C 19.214844 52.148438 19.664062 51.964844 19.992188 51.632812 C 20.324219 51.304688 20.507812 50.855469 20.507812 50.390625 C 20.507812 49.925781 20.324219 49.476562 19.992188 49.148438 C 19.664062 48.816406 19.214844 48.632812 18.75 48.632812 Z M 18.75 48.632812 "/>
<path style=" stroke:none;fill-rule:nonzero;fill:rgb(100%,32.941176%,24.313725%);fill-opacity:1;" d="M 19.335938 36.328125 C 19.335938 35.863281 19.152344 35.414062 18.820312 35.085938 C 18.492188 34.753906 18.042969 34.570312 17.578125 34.570312 L 2.34375 34.570312 C 1.878906 34.570312 1.429688 34.753906 1.101562 35.085938 C 0.769531 35.414062 0.585938 35.863281 0.585938 36.328125 C 0.585938 36.792969 0.769531 37.242188 1.101562 37.570312 C 1.429688 37.902344 1.878906 38.085938 2.34375 38.085938 L 17.578125 38.085938 C 18.042969 38.085938 18.492188 37.902344 18.820312 37.570312 C 19.152344 37.242188 19.335938 36.792969 19.335938 36.328125 Z M 19.335938 36.328125 "/>
</g>
</svg>
