<svg width="72" height="72" viewBox="0 0 72 72" fill="none" xmlns="http://www.w3.org/2000/svg">
<path d="M64.6338 21.0028L66.4432 19.1932C66.602 19.037 66.7283 18.8509 66.8148 18.6456C66.9013 18.4403 66.9463 18.2199 66.9472 17.9972C66.9481 17.7744 66.9049 17.5537 66.82 17.3477C66.7352 17.1417 66.6105 16.9546 66.4529 16.797C66.2954 16.6395 66.1083 16.5148 65.9023 16.4299C65.6963 16.3451 65.4756 16.3019 65.2528 16.3028C65.0301 16.3037 64.8097 16.3487 64.6044 16.4352C64.3991 16.5217 64.213 16.648 64.0568 16.8068L62.1735 18.69C58.9943 16.0718 55.2225 14.2716 51.1875 13.4464V9.5625H52.875C53.3225 9.5625 53.7518 9.38471 54.0682 9.06824C54.3847 8.75178 54.5625 8.32255 54.5625 7.875V2.25C54.5625 1.80245 54.3847 1.37322 54.0682 1.05676C53.7518 0.74029 53.3225 0.5625 52.875 0.5625H39.375C38.9274 0.5625 38.4982 0.74029 38.1817 1.05676C37.8653 1.37322 37.6875 1.80245 37.6875 2.25V7.875C37.6875 8.32255 37.8653 8.75178 38.1817 9.06824C38.4982 9.38471 38.9274 9.5625 39.375 9.5625H41.0625V13.4464C37.0274 14.2716 33.2557 16.0718 30.0764 18.69L28.1932 16.8068C28.037 16.648 27.8508 16.5217 27.6455 16.4352C27.4403 16.3487 27.2199 16.3037 26.9971 16.3028C26.7744 16.3019 26.5536 16.3451 26.3477 16.4299C26.1417 16.5148 25.9545 16.6395 25.797 16.797C25.6395 16.9546 25.5147 17.1417 25.4299 17.3477C25.3451 17.5537 25.3019 17.7744 25.3028 17.9972C25.3037 18.2199 25.3487 18.4403 25.4352 18.6456C25.5217 18.8509 25.648 19.037 25.8068 19.1932L27.6162 21.0028C23.2405 25.6793 20.808 31.8455 20.8125 38.25C20.8125 52.2073 32.1677 63.5625 46.125 63.5625C60.0823 63.5625 71.4375 52.2073 71.4375 38.25C71.4419 31.8455 69.0095 25.6793 64.6338 21.0028ZM41.0625 3.9375H51.1875V6.1875H41.0625V3.9375ZM44.4375 9.5625H47.8125V12.9952C47.2545 12.9582 46.6921 12.9375 46.125 12.9375C45.5578 12.9375 44.9955 12.9582 44.4375 12.9952V9.5625ZM46.125 60.1875C34.0286 60.1875 24.1875 50.3464 24.1875 38.25C24.1875 26.1536 34.0286 16.3125 46.125 16.3125C58.2214 16.3125 68.0625 26.1536 68.0625 38.25C68.0625 50.3464 58.2214 60.1875 46.125 60.1875Z" fill="#FF543E"/>
<path d="M46.125 19.6875C35.8896 19.6875 27.5625 28.0146 27.5625 38.25C27.5625 48.4854 35.8896 56.8125 46.125 56.8125C56.3604 56.8125 64.6875 48.4854 64.6875 38.25C64.6875 28.0146 56.3604 19.6875 46.125 19.6875ZM61.2183 36.5625H47.8125V23.1567C51.2343 23.5444 54.4234 25.0815 56.8585 27.5165C59.2935 29.9516 60.8306 33.1407 61.2183 36.5625ZM46.125 53.4375C42.2436 53.4371 38.5096 51.9506 35.6899 49.2834C32.8701 46.6161 31.1786 42.9705 30.9626 39.0951C30.7466 35.2197 32.0226 31.4087 34.5286 28.4446C37.0345 25.4805 40.5802 23.5884 44.4375 23.1567V38.25C44.4375 38.6976 44.6153 39.1268 44.9318 39.4432C45.2482 39.7597 45.6774 39.9375 46.125 39.9375H61.2183C60.7987 43.6483 59.0285 47.075 56.2451 49.5646C53.4616 52.0543 49.8594 53.4328 46.125 53.4375Z" fill="#FF543E"/>
<path d="M19.125 26.4375H7.875C7.42745 26.4375 6.99822 26.6153 6.68176 26.9318C6.36529 27.2482 6.1875 27.6774 6.1875 28.125C6.1875 28.5726 6.36529 29.0018 6.68176 29.3182C6.99822 29.6347 7.42745 29.8125 7.875 29.8125H19.125C19.5726 29.8125 20.0018 29.6347 20.3182 29.3182C20.6347 29.0018 20.8125 28.5726 20.8125 28.125C20.8125 27.6774 20.6347 27.2482 20.3182 26.9318C20.0018 26.6153 19.5726 26.4375 19.125 26.4375Z" fill="#FF543E"/>
<path d="M18.5625 41.625C18.5625 41.1774 18.3847 40.7482 18.0682 40.4318C17.7518 40.1153 17.3226 39.9375 16.875 39.9375H5.625C5.17745 39.9375 4.74822 40.1153 4.43176 40.4318C4.11529 40.7482 3.9375 41.1774 3.9375 41.625C3.9375 42.0726 4.11529 42.5018 4.43176 42.8182C4.74822 43.1347 5.17745 43.3125 5.625 43.3125H16.875C17.3226 43.3125 17.7518 43.1347 18.0682 42.8182C18.3847 42.5018 18.5625 42.0726 18.5625 41.625Z" fill="#FF543E"/>
<path d="M18 46.6875H10.125C9.67745 46.6875 9.24822 46.8653 8.93176 47.1818C8.61529 47.4982 8.4375 47.9274 8.4375 48.375C8.4375 48.8226 8.61529 49.2518 8.93176 49.5682C9.24822 49.8847 9.67745 50.0625 10.125 50.0625H18C18.4476 50.0625 18.8768 49.8847 19.1932 49.5682C19.5097 49.2518 19.6875 48.8226 19.6875 48.375C19.6875 47.9274 19.5097 47.4982 19.1932 47.1818C18.8768 46.8653 18.4476 46.6875 18 46.6875Z" fill="#FF543E"/>
<path d="M18.5625 34.875C18.5625 34.4274 18.3847 33.9982 18.0682 33.6818C17.7518 33.3653 17.3226 33.1875 16.875 33.1875H2.25C1.80245 33.1875 1.37322 33.3653 1.05676 33.6818C0.74029 33.9982 0.5625 34.4274 0.5625 34.875C0.5625 35.3226 0.74029 35.7518 1.05676 36.0682C1.37322 36.3847 1.80245 36.5625 2.25 36.5625H16.875C17.3226 36.5625 17.7518 36.3847 18.0682 36.0682C18.3847 35.7518 18.5625 35.3226 18.5625 34.875Z" fill="#FF543E"/>
</svg>
