<?xml version="1.0" encoding="UTF-8"?>
<svg xmlns="http://www.w3.org/2000/svg" xmlns:xlink="http://www.w3.org/1999/xlink" width="70pt" height="70pt" viewBox="0 0 70 70" version="1.1">
<g id="surface1">
<path style=" stroke:none;fill-rule:nonzero;fill:rgb(100%,32.941176%,24.313725%);fill-opacity:1;" d="M 68.101562 29.199219 L 68.101562 23 L 64.398438 18 L 61.800781 18 L 61.800781 25.5 L 57.398438 25.5 L 57.398438 18 L 54.800781 18 L 51 23 L 51 29.101562 L 55.300781 33.398438 L 55.300781 51.699219 L 51 56 L 51 62.101562 L 54.699219 67.101562 L 57.300781 67.101562 L 57.300781 59.601562 L 61.601562 59.601562 L 61.601562 67.101562 L 64.199219 67.101562 L 67.898438 62.101562 L 67.898438 56 L 63.601562 51.699219 L 63.601562 33.398438 Z M 65.898438 56.898438 L 65.898438 61.5 L 63.800781 64.300781 L 63.800781 57.601562 L 55.199219 57.601562 L 55.199219 64.300781 L 53.101562 61.5 L 53.101562 56.898438 L 57.398438 52.601562 L 57.398438 32.5 L 53.101562 28.199219 L 53.101562 23.601562 L 55.199219 20.800781 L 55.199219 27.5 L 63.800781 27.5 L 63.800781 20.800781 L 65.898438 23.601562 L 65.898438 28.199219 L 61.601562 32.5 L 61.601562 52.601562 Z M 65.898438 56.898438 "/>
<path style=" stroke:none;fill-rule:nonzero;fill:rgb(100%,32.941176%,24.313725%);fill-opacity:1;" d="M 43.199219 47.699219 L 31.800781 44.898438 L 31.800781 42.5 C 34.101562 40.699219 35.800781 38 36 34.898438 C 38.398438 34.398438 40.300781 32.300781 40.300781 29.601562 L 40.300781 20 C 40.300781 12.898438 35.199219 6.898438 28.5 5.398438 L 28.5 4.199219 C 28.5 2.398438 27 1 25.300781 1 C 23.601562 1 22.101562 2.5 22.101562 4.199219 L 22.101562 5.699219 C 16.898438 6.898438 12.699219 10.898438 11.101562 16 L 6.199219 16 C 4.5 16 3 17.5 3 19.199219 C 3 20.898438 4.5 22.398438 6.199219 22.398438 L 10.5 22.398438 L 10.5 29.898438 C 10.5 32.5 12.300781 34.699219 14.800781 35.101562 C 15.101562 38.199219 16.601562 40.800781 19 42.699219 L 19 45.101562 L 7.601562 47.699219 C 4.300781 48.601562 2 51.601562 2 55 L 2 67.101562 L 49 67.101562 L 49 55 C 48.898438 51.601562 46.601562 48.601562 43.199219 47.699219 Z M 10.5 20.101562 L 6.199219 20.101562 C 5.601562 20.101562 5.101562 19.601562 5.101562 19 C 5.101562 18.398438 5.601562 17.898438 6.199219 17.898438 L 10.601562 17.898438 C 10.5 18.800781 10.5 19.398438 10.5 20.101562 Z M 34.300781 47.699219 L 32.300781 51 L 29.699219 51 L 29.699219 53.699219 L 26.5 56.199219 L 26.5 52.398438 L 31.199219 46.898438 Z M 36.101562 32.800781 L 36.101562 26.800781 C 37.398438 27.300781 38.199219 28.5 38.199219 29.800781 C 38.199219 31.101562 37.300781 32.300781 36.101562 32.800781 Z M 38.199219 25.601562 C 37.601562 25.101562 36.800781 24.800781 36.101562 24.601562 L 36.101562 22.398438 L 38.199219 22.398438 Z M 38.199219 20.101562 L 32.898438 20.101562 C 32.699219 15.5 31 11.101562 28 7.601562 C 33.699219 8.699219 38.199219 14 38.199219 20.101562 Z M 24.300781 4.199219 C 24.300781 3.601562 24.800781 3.101562 25.398438 3.101562 C 26 3.101562 26.5 3.601562 26.5 4.199219 L 26.5 5.398438 C 26.101562 5.398438 25.800781 5.300781 25.398438 5.300781 C 25 5.300781 24.699219 5.300781 24.300781 5.300781 Z M 24.699219 8.699219 L 25.5 7.800781 L 26.199219 8.699219 C 28.898438 11.898438 30.5 15.898438 30.800781 20.101562 L 20.101562 20.101562 C 20.300781 15.898438 22 12 24.699219 8.699219 Z M 32.5 22.300781 C 31.199219 23.398438 29.699219 24 28 24.199219 C 28.800781 23.601562 29.5 22.898438 30.101562 22.300781 Z M 27.101562 22.300781 C 25.800781 23.398438 24.300781 24 22.601562 24.199219 C 23.398438 23.601562 24.101562 22.898438 24.699219 22.300781 Z M 21.800781 22.300781 C 20.300781 23.5 18.699219 24.101562 16.800781 24.300781 L 16.800781 22.300781 Z M 14.800781 32.800781 C 13.5 32.300781 12.699219 31.101562 12.699219 29.800781 C 12.699219 28.5 13.601562 27.300781 14.800781 26.800781 Z M 14.800781 24.5 C 14 24.699219 13.199219 25 12.699219 25.5 L 12.699219 22.300781 L 14.800781 22.300781 Z M 12.601562 20.101562 C 12.601562 14 17 8.699219 22.800781 7.601562 C 19.898438 11.101562 18.101562 15.601562 17.898438 20.101562 Z M 16.898438 34 L 16.898438 26.5 C 18.398438 26.398438 19.800781 25.898438 21.199219 25.199219 L 21.199219 26.5 C 23 26.5 24.898438 26 26.5 25.199219 L 26.5 26.5 C 29.199219 26.5 31.800781 25.5 34 23.800781 L 34 34 C 34 38.699219 30.199219 42.601562 25.398438 42.601562 C 20.699219 42.601562 16.898438 38.699219 16.898438 34 Z M 10.5 64.898438 L 4.101562 64.898438 L 4.101562 55 C 4.101562 53 5.300781 51.199219 7 50.199219 L 9.300781 53.101562 C 10.101562 54.101562 10.5 55.199219 10.5 56.398438 Z M 24.300781 64.898438 L 12.601562 64.898438 L 12.601562 56.398438 C 12.601562 54.699219 12 53.101562 10.898438 51.699219 L 9.101562 49.5 L 14.300781 48.199219 L 17.199219 53.199219 L 19 53.199219 L 19 54.800781 L 24.300781 59.101562 Z M 24.300781 56.300781 L 21.101562 53.800781 L 21.101562 51 L 18.5 51 L 16.601562 47.699219 L 19.699219 46.898438 L 24.398438 52.398438 L 24.398438 56.300781 Z M 21.101562 45.398438 L 21.101562 43.699219 C 22.398438 44.300781 23.800781 44.601562 25.398438 44.601562 C 27 44.601562 28.300781 44.300781 29.699219 43.699219 L 29.699219 45.300781 L 25.398438 50.5 Z M 38.199219 56.5 L 38.199219 65 L 26.398438 65 L 26.398438 59 L 31.699219 54.699219 L 31.699219 53.101562 L 33.398438 53.101562 L 36.300781 48.101562 L 41.601562 49.398438 L 39.800781 51.800781 C 38.800781 53.199219 38.199219 54.800781 38.199219 56.5 Z M 46.800781 64.898438 L 40.398438 64.898438 L 40.398438 56.398438 C 40.398438 55.199219 40.800781 54 41.601562 53.101562 L 43.898438 50.199219 C 45.699219 51.101562 46.800781 52.898438 46.800781 55 Z M 46.800781 64.898438 "/>
<path style=" stroke:none;fill-rule:nonzero;fill:rgb(100%,32.941176%,24.313725%);fill-opacity:1;" d="M 30.699219 29.699219 C 31.300781 29.699219 31.800781 29.199219 31.800781 28.601562 C 31.800781 28 31.300781 27.5 30.699219 27.5 C 30.101562 27.5 29.601562 28 29.601562 28.601562 C 29.699219 29.300781 30.101562 29.699219 30.699219 29.699219 Z M 30.699219 29.699219 "/>
<path style=" stroke:none;fill-rule:nonzero;fill:rgb(100%,32.941176%,24.313725%);fill-opacity:1;" d="M 21.101562 28.699219 C 21.101562 28.101562 20.601562 27.601562 20 27.601562 C 19.398438 27.601562 18.898438 28.101562 18.898438 28.699219 C 18.898438 29.300781 19.398438 29.800781 20 29.800781 C 20.699219 29.699219 21.101562 29.300781 21.101562 28.699219 Z M 21.101562 28.699219 "/>
<path style=" stroke:none;fill-rule:nonzero;fill:rgb(100%,32.941176%,24.313725%);fill-opacity:1;" d="M 25.398438 39.398438 C 27.699219 39.398438 29.699219 37.5 29.699219 35.101562 L 27.601562 35.101562 C 27.601562 36.300781 26.601562 37.199219 25.5 37.199219 C 24.300781 37.199219 23.398438 36.199219 23.398438 35.101562 L 21.300781 35.101562 C 21.101562 37.398438 23 39.398438 25.398438 39.398438 Z M 25.398438 39.398438 "/>
</g>
</svg>
